# xmcd
#
# Track frame offsets: 
#        150
#        14483
#        32668
#        48923
#        66542
#        83173
#        101305
#        115264
#        130843
#        143711
#
# Disc length: 2111 seconds
#
# Revision: 0
# Processed by: cddbd v1.5.2PL0 Copyright (c) Steve Scherf et al.
# Submitted via: ExactAudioCopyFreeDBPlugin 1.0
#
DISCID=82083d0a
DTITLE=Amy Hart - Every Beat of My Heart
DYEAR=2000
DGENRE=Country
TTITLE0=Rockabye
TTITLE1=Love Train
TTITLE2=A Hearts an Awful Thing
TTITLE3=Every Beat of My Heart
TTITLE4=Be That Way
TTITLE5=Why Don't You Stay
TTITLE6=Love Is Killing Me
TTITLE7=You Left the Light On
TTITLE8=Is There Any Hope?
TTITLE9=Take Me out Tonght
EXTD=
EXTT0=
EXTT1=
EXTT2=
EXTT3=
EXTT4=
EXTT5=
EXTT6=
EXTT7=
EXTT8=
EXTT9=
PLAYORDER=
